<svg xmlns="http://www.w3.org/2000/svg" viewBox="0 0 96 96" width="512" height="512"><defs><linearGradient id="g" x1="0" y1="0" x2="1" y2="1"><stop offset="0" stop-color="#E8431C"/><stop offset=".55" stop-color="#F07A1D"/><stop offset="1" stop-color="#F5B32B"/></linearGradient></defs><rect width="96" height="96" rx="22" fill="url(#g)"/><g transform="translate(48 48) scale(.82) translate(-48 -48)"><path d="M24 10 H58 L82 34 V82 a8 8 0 0 1 -8 8 H24 a8 8 0 0 1 -8 -8 V18 a8 8 0 0 1 8 -8 Z" fill="#fff"/><path d="M58 10 V26 a8 8 0 0 0 8 8 H82 Z" fill="#FBD5BF" opacity="1"/><g fill="#E8431C"><rect x="45.5" y="40" width="5" height="32" rx="2.5"/><rect x="37" y="38" width="22" height="5" rx="2.5"/><rect x="37" y="69" width="22" height="5" rx="2.5"/></g></g></svg>